<?xml version="1.0" encoding="utf-8"?>
<!-- Generator: Adobe Illustrator 23.0.0, SVG Export Plug-In . SVG Version: 6.00 Build 0)  -->
<svg version="1.1" id="Camada_1" focusable="false" xmlns="http://www.w3.org/2000/svg" xmlns:xlink="http://www.w3.org/1999/xlink"
	 x="0px" y="0px" viewBox="0 0 512 512" style="enable-background:new 0 0 512 512;" xml:space="preserve">
<style type="text/css">
	.st0{fill:#D8D8D8;}
</style>
<path class="st0" d="M67.3,418.6l79.4-79.4c3.6-3.6,8.4-5.6,13.5-5.6h13c-22-28.1-35-63.5-35-101.9c0-91.5,74.2-165.7,165.7-165.7
	s165.7,74.2,165.7,165.7s-74.2,165.7-165.7,165.7c-38.5,0-73.8-13.1-101.9-35v13c0,5.1-2,10-5.6,13.5l-79.4,79.4
	c-7.5,7.5-19.6,7.5-27,0l-22.5-22.5C59.9,438.2,59.9,426.1,67.3,418.6z M303.8,333.6c56.3,0,101.9-45.6,101.9-101.9
	c0-56.3-45.6-101.9-101.9-101.9c-56.3,0-101.9,45.6-101.9,101.9C201.9,287.9,247.4,333.6,303.8,333.6z"/>
</svg>
